<?xml version="1.0" standalone="no"?>
<!DOCTYPE svg PUBLIC "-//W3C//DTD SVG 1.1//EN" "http://www.w3.org/Graphics/SVG/1.1/DTD/svg11.dtd" >
<svg xmlns="http://www.w3.org/2000/svg">
<metadata></metadata>
<defs>
<font id="icomoonregular" horiz-adv-x="2048" >
<font-face units-per-em="2048" ascent="1920" descent="-128" />
<missing-glyph horiz-adv-x="500" />
<glyph horiz-adv-x="0" />
<glyph unicode="&#xd;" horiz-adv-x="680" />
<glyph unicode="!" d="M0 896l1024 -1024l1024 1024h-640v1024h-768v-1024h-640z" />
<glyph unicode="&#x22;" d="M0 904q20 -28 54 -82t144 -188t222 -236t278 -186t326 -84t322 80t284 194t220 228t146 194l52 80q-20 32 -54 84t-144 182t-222 230t-278 182t-326 82q-116 0 -234 -42t-216 -108t-190 -148t-160 -162t-120 -148t-80 -112zM512 896q0 212 150 362t362 150t362 -150 t150 -362t-150 -362t-362 -150t-362 150t-150 362zM768 896q0 -104 76 -180t180 -76t180 76t76 180t-76 180t-180 76t-180 -76t-76 -180z" />
<glyph unicode="#" d="M0 896l384 384v-256h384v-256h-384v-256zM640 256h256v384h256v-384h256l-384 -384zM640 1536l384 384l384 -384h-256v-384h-256v384h-256zM1280 768v256h384v256l384 -384l-384 -384v256h-384z" />
<glyph unicode="$" d="M128 1280l128 128h1536l128 -128v384h-640v256h-512v-256h-640v-384zM256 1280l128 -1408h1280l128 1408h-1536zM896 1664v128h256v-128h-256z" />
<glyph unicode="%" d="M4 252q-16 -40 16 -68l292 -292q28 -32 68 -16q12 4 24 16l620 620l620 -620q12 -12 24 -16q40 -16 68 16l292 292q32 28 16 68q-4 12 -16 24l-620 620l620 620q12 12 16 24q16 40 -16 68l-292 292q-28 32 -68 16q-12 -4 -24 -16l-620 -620l-620 620q-12 12 -24 16 q-40 16 -68 -16l-292 -292q-32 -28 -16 -68q4 -12 16 -24l620 -620l-620 -620q-12 -12 -16 -24z" />
<glyph unicode="&#x26;" d="M0 -128l512 128l1280 1280l-384 384l-1280 -1280zM384 384l1024 1024l128 -128l-1024 -1024zM1536 1792l384 -384l32 32q192 192 0 384t-384 0z" />
<glyph unicode="'" d="M0 -128h2048v2048h-252l252 -256l-256 -256h-256l256 256l-252 256h-356l256 -256l-260 -256h-304l260 256l-256 256h-364l256 -256l-260 -256h-256l256 256l-256 256h-256v-2048zM256 132v256h1536v-256h-1536zM256 640v256h1536v-256h-1536z" />
<glyph unicode="(" d="M128 512q0 -52 38 -90t90 -38h896q52 0 90 38t38 90v768q0 52 -38 90t-90 38h-896q-52 0 -90 -38t-38 -90v-768zM1408 824l512 -440v1024l-512 -440v-144z" />
<glyph unicode=")" d="M0 512q0 -160 112 -272t272 -112h1280q160 0 272 112t112 272v768q0 160 -112 272t-272 112h-1280q-160 0 -272 -112t-112 -272v-768zM768 384v1024l640 -512z" />
<glyph unicode="*" d="M0 -128l844 656q56 -144 32 -290t-64 -256t-44 -110l512 384v384l640 640l128 640l-640 -128l-640 -640h-384l-384 -512q16 4 44 12t114 26t156 24t172 12t158 -14z" />
<glyph unicode="+" d="M192 816q0 -372 212 -684q56 -80 96 -128t104 -92t124 -40t156 44t178 40t178 -42t162 -40t128 44t94 82q164 200 232 416q-180 88 -244 256q-28 76 -28 160q-4 244 220 388q-132 196 -376 204q-92 8 -228 -42t-166 -50t-146 44t-188 44q-132 -4 -244 -72t-180 -184 q-84 -148 -84 -348zM1020 1448q84 -8 166 34t138 110q128 152 108 328q-76 -4 -162 -48t-138 -108q-132 -152 -112 -316z" />
<glyph unicode="," d="M0 128h1664v536l-256 -168v-112h-1152v768h252q32 36 64 68q132 124 312 188h-884v-1280zM512 640q12 48 76 124t140 126t222 92t330 42v-384l768 512l-768 512v-384q-364 0 -566 -190t-202 -450z" />
<glyph unicode="-" d="M0 896q0 -424 300 -724t724 -300t724 300t300 724t-300 724t-724 300t-724 -300t-300 -724zM512 768v256h384v384h256v-384h384v-256h-384v-384h-256v384h-384z" />
<glyph unicode="." horiz-adv-x="2044" d="M0 128q0 52 38 90t90 38t90 -38t38 -90t-38 -90t-90 -38t-90 38t-38 90zM0 640q0 52 38 90t90 38t90 -38t38 -90t-38 -90t-90 -38t-90 38t-38 90zM0 1152q0 52 38 90t90 38t90 -38t38 -90t-38 -90t-90 -38t-90 38t-38 90zM0 1664q0 52 38 90t90 38t90 -38t38 -90t-38 -90 t-90 -38t-90 38t-38 90zM512 0v256h1536v-256h-1536zM512 512v256h1536v-256h-1536zM512 1024v256h1536v-256h-1536zM512 1536v256h1536v-256h-1536z" />
<glyph unicode="/" d="M0 896l768 -768l1280 1280l-320 320l-960 -960l-448 448z" />
<glyph unicode="0" horiz-adv-x="1536" d="M0 256q0 -160 112 -272t272 -112h768q160 0 272 112t112 272v1024q0 264 -188 452t-452 188t-452 -188t-188 -452v-128h-256v-896zM512 1152v128q0 160 112 272t272 112t272 -112t112 -272v-128h-768zM640 512q0 52 38 90t90 38t90 -38t38 -90t-38 -90t-90 -38t-90 38 t-38 90z" />
<glyph unicode="1" d="M0 1116q0 -248 186 -446t486 -282q12 -72 12 -108q0 -196 -144 -376q108 44 240 170t228 266h16q424 0 724 228t300 548t-300 546t-724 226t-724 -226t-300 -546z" />
<glyph unicode="2" d="M0 896q0 -424 300 -724t724 -300t724 300t300 724t-300 724t-724 300t-724 -300t-300 -724zM640 128v128h128v640h-128v128h640v-768h128v-128h-768zM768 1408q0 108 74 182t182 74t182 -74t74 -182t-74 -182t-182 -74t-182 74t-74 182z" />
<glyph unicode="3" d="M0 596q148 -200 368 -306t444 -100t432 82t360 232t200 356q156 -4 244 92q-124 -24 -232 24q172 12 224 132q-36 -24 -110 -34t-134 6l-8 48q-44 152 -168 252t-268 88q24 8 38 14t32 10t36 10t38 14q40 16 32 40q-8 28 -72 8q-56 -20 -90 -32t-38 -12q100 36 108 84 q-92 -16 -160 -76q28 28 32 60q-176 -112 -320 -496q-96 92 -156 124q-220 120 -528 232q-4 -68 38 -138t138 -118q-40 4 -124 -16q28 -156 228 -204q-92 -8 -140 -56q72 -144 252 -124q-112 -52 -76 -120t140 -56q-160 -164 -388 -164t-372 144z" />
<glyph unicode="4" d="M0 768l300 -128q16 -44 32 -76l-120 -304l180 -180l304 124q28 -12 72 -28l128 -304h256l128 304q44 16 72 32l308 -124l180 180l-128 304q16 28 28 72l308 128v256l-304 128q-16 44 -32 72l124 308l-180 180l-304 -124q-32 12 -72 28l-128 304h-256l-128 -304 q-44 -16 -76 -28l-304 120l-180 -180l124 -300q-16 -32 -32 -76l-300 -128v-256zM640 896q0 160 112 272t270 112t272 -112t114 -272t-114 -272t-272 -112t-270 112t-112 272z" />
<glyph unicode="5" d="M448 820h316v-948h392v948h396v392h-396v200q0 48 26 82t54 34h316v392h-316q-196 0 -334 -150t-138 -362v-196h-316v-392z" />
<glyph unicode="6" d="M0 264q184 68 350 68t358 -124q64 220 188 644q-188 120 -348 120q-20 0 -36 -4q-136 -12 -280 -60q-28 -12 -52 -20zM240 1108q192 76 344 76q180 -4 364 -124l184 636q-132 76 -210 96t-158 20q-156 -4 -344 -80zM876 108q224 -128 382 -128t370 88l176 604 q-180 -56 -336 -56q-240 0 -412 120zM1116 944q188 -120 378 -120t370 80v4l8 4l176 612q-176 -68 -344 -68q-224 0 -404 124z" />
<glyph unicode="7" d="M0 896q0 -424 300 -724t724 -300t724 300t300 724t-300 724t-724 300t-724 -300t-300 -724zM640 384v1024l1024 -512z" />
<glyph unicode="8" d="M256 768q0 -320 224 -544t544 -224t544 224t224 544h-256q0 -212 -150 -362t-362 -150t-362 150t-150 362t150 362t362 150h152l-76 -76l180 -180l388 384l-388 384l-180 -180l76 -76h-152q-320 0 -544 -224t-224 -544z" />
<glyph unicode="9" d="M0 -128h2048v2048h-2048v-2048zM128 0v1792h1792v-1792h-1792z" />
<glyph unicode=";" d="M0 376q0 -140 160 -228t388 -88q244 0 386 116t142 272q0 116 -42 194t-146 154q-48 32 -94 82t-46 86q0 44 18 74t82 78q152 120 152 280q0 104 -46 190t-126 118h172l120 88h-536q-184 0 -326 -118t-142 -274q0 -164 114 -278t294 -114q28 0 48 4q-24 -52 -24 -100 q0 -76 72 -148h-44h-48q-220 0 -374 -118t-154 -270zM192 432q0 116 118 200t274 80q68 0 132 -20q16 -12 46 -32t42 -30t36 -26t34 -28t24 -28t22 -32t12 -36q4 -28 4 -56q0 -276 -388 -276q-152 0 -254 84t-102 200zM310 1400q-18 136 42 228t164 88t190 -100t104 -232 t-44 -230t-164 -90t-188 102t-104 234zM1152 1280h384v-384h128v384h384v128h-384v384h-128v-384h-384v-128z" />
<glyph unicode="&#x3c;" d="M0 896q0 -424 300 -724t724 -300t724 300t300 724t-300 724t-724 300t-724 -300t-300 -724zM432 1128q4 212 160 358t356 170q248 28 440 -86t224 -334q36 -272 -104 -488t-384 -196q-44 4 -72 14t-76 44t-56 38q-40 -192 -88 -318t-148 -198q-24 92 -8 226t32 204 t48 192t44 190q-36 80 -28 176t72 162t152 30q64 -24 70 -90t-20 -144t-50 -156t-8 -138t96 -76q104 -20 186 60t114 198t16 248t-80 198q-96 96 -232 106t-250 -50t-184 -180t-50 -256q8 -32 26 -64t30 -52t12 -58t-28 -82q-224 52 -212 352z" />
<glyph unicode="?" d="M0 364q0 -200 140 -344l8 -8q144 -140 344 -140t340 140l440 436q140 144 140 344t-140 344l-8 8q-24 20 -52 40l-160 -160q32 -16 52 -40l8 -8q76 -76 76 -184t-76 -184l-436 -436q-76 -80 -184 -80t-184 80l-8 8q-80 76 -80 184t80 184l196 200q-52 124 -48 264 l-308 -308q-140 -140 -140 -340zM636 1000q0 -200 140 -344l8 -8q24 -20 52 -40l160 160q-32 16 -52 40l-8 8q-76 76 -76 184t76 184l436 436q76 80 184 80t184 -80l8 -8q80 -76 80 -184t-80 -184l-196 -200q52 -124 48 -264l308 308q140 140 140 340t-140 344l-8 8 q-144 140 -344 140t-340 -140l-440 -436q-140 -144 -140 -344z" />
<glyph unicode="^" d="M0 896q0 -424 300 -724t724 -300t724 300t300 724t-300 724t-724 300t-724 -300t-300 -724zM164 896q0 176 68 336q64 152 184 272t272 184q160 68 336 68t336 -68q152 -64 272 -184t184 -272q68 -160 68 -336t-68 -336q-64 -152 -184 -272t-272 -184q-40 -16 -80 -28 v152q0 120 -84 180q52 4 96 12t92 26t86 40t74 60t60 86t38 114t14 146q0 156 -100 264q44 120 -12 260l-24 4q-24 4 -92 -22t-152 -82q-120 36 -248 36t-244 -36q-56 36 -102 60t-76 32t-54 10t-30 2t-10 -4q-56 -140 -12 -260q-100 -108 -100 -264q0 -80 14 -146t38 -114 t60 -86t74 -60t86 -40t92 -26t96 -12q-80 -56 -80 -180v-156q-48 12 -92 32q-152 64 -272 184t-184 272q-68 160 -68 336z" />
<glyph unicode="&#xad;" d="M0 896q0 -424 300 -724t724 -300t724 300t300 724t-300 724t-724 300t-724 -300t-300 -724zM512 768v256h384v384h256v-384h384v-256h-384v-384h-256v384h-384z" />
<glyph unicode="&#x2000;" horiz-adv-x="960" />
<glyph unicode="&#x2001;" horiz-adv-x="1921" />
<glyph unicode="&#x2002;" horiz-adv-x="960" />
<glyph unicode="&#x2003;" horiz-adv-x="1921" />
<glyph unicode="&#x2004;" horiz-adv-x="640" />
<glyph unicode="&#x2005;" horiz-adv-x="480" />
<glyph unicode="&#x2006;" horiz-adv-x="320" />
<glyph unicode="&#x2007;" horiz-adv-x="320" />
<glyph unicode="&#x2008;" horiz-adv-x="240" />
<glyph unicode="&#x2009;" horiz-adv-x="384" />
<glyph unicode="&#x200a;" horiz-adv-x="106" />
<glyph unicode="&#x2010;" d="M0 896q0 -424 300 -724t724 -300t724 300t300 724t-300 724t-724 300t-724 -300t-300 -724zM512 768v256h384v384h256v-384h384v-256h-384v-384h-256v384h-384z" />
<glyph unicode="&#x2011;" d="M0 896q0 -424 300 -724t724 -300t724 300t300 724t-300 724t-724 300t-724 -300t-300 -724zM512 768v256h384v384h256v-384h384v-256h-384v-384h-256v384h-384z" />
<glyph unicode="&#x2012;" d="M0 896q0 -424 300 -724t724 -300t724 300t300 724t-300 724t-724 300t-724 -300t-300 -724zM512 768v256h384v384h256v-384h384v-256h-384v-384h-256v384h-384z" />
<glyph unicode="&#x2013;" horiz-adv-x="1024" d="M0 896q0 -424 150 -724t362 -300t362 300t150 724t-150 724t-362 300t-362 -300t-150 -724zM256 768v256h192v384h128v-384h192v-256h-192v-384h-128v384h-192z" />
<glyph unicode="&#x2014;" d="M0 896q0 -424 300 -724t724 -300t724 300t300 724t-300 724t-724 300t-724 -300t-300 -724zM512 768v256h384v384h256v-384h384v-256h-384v-384h-256v384h-384z" />
<glyph unicode="&#x202f;" horiz-adv-x="384" />
<glyph unicode="&#x205f;" horiz-adv-x="480" />
<glyph unicode="&#xe000;" horiz-adv-x="2000" d="M0 0z" />
</font>
</defs>
</svg>
